# xmcd
#
# Track frame offsets:
#	150
#	18919
#	38329
#	57794
#	75692
#	89982
#	106026
#	130596
#	147939
#	177832
#
# Disc length: 2519 seconds
#
# Revision: 0
# Processed by: cddbd v1.4PL0 Copyright (c) Steve Scherf et al.
# Submitted via: EasyCDDAExtractor 4.6.0.1
#
DISCID=7409d50a
DTITLE=Dr. Duke Tumatoe and the Power Trio - Dr. Duke A Ejukatid Man
DYEAR=1999
DGENRE=Blues
TTITLE0=Long Legged Women and Blues Guitar
TTITLE1=Green Onions
TTITLE2=Didn't Do It
TTITLE3=Make Love To You With My Guitar
TTITLE4=Dance With Me
TTITLE5=Shopaholic
TTITLE6=Free Chicken and Beer
TTITLE7=Do It Right
TTITLE8=Blues With a Feeling
TTITLE9=Sentence Me to Nothing
EXTD=
EXTT0=
EXTT1=
EXTT2=
EXTT3=
EXTT4=
EXTT5=
EXTT6=
EXTT7=
EXTT8=
EXTT9=
PLAYORDER=
